<?xml version="1.0" encoding="utf-8"?>
<!-- Generator: Adobe Illustrator 26.2.1, SVG Export Plug-In . SVG Version: 6.00 Build 0)  -->
<svg version="1.1" id="Layer_1" xmlns="http://www.w3.org/2000/svg" xmlns:xlink="http://www.w3.org/1999/xlink" x="0px" y="0px"
	 viewBox="0 0 197.12 41.72" style="enable-background:new 0 0 197.12 41.72;" xml:space="preserve">
<style type="text/css">
	.st0{clip-path:url(#SVGID_00000031926143853894040310000008397395069399919290_);}
	.st1{enable-background:new    ;}
	.st2{fill:#A1BB1C;}
	.st3{fill:#313133;}
</style>
<g>
	<defs>
		<rect id="SVGID_1_" x="9.98" y="-3.38" width="178.93" height="52.81"/>
	</defs>
	<clipPath id="SVGID_00000119811723455277249820000016540783529012072589_">
		<use xlink:href="#SVGID_1_"  style="overflow:visible;"/>
	</clipPath>
	<g id="Group_1219" style="clip-path:url(#SVGID_00000119811723455277249820000016540783529012072589_);">
		<g class="st1">
			<path class="st2" d="M15.74,17.72c-1.52-0.81-2.71-1.93-3.57-3.37c-0.87-1.44-1.3-3.07-1.3-4.89c0-1.82,0.43-3.45,1.3-4.89
				c0.87-1.44,2.06-2.56,3.57-3.37C17.25,0.4,18.96,0,20.87,0c1.66,0,3.16,0.29,4.5,0.88c1.33,0.59,2.44,1.44,3.33,2.55L25.42,6.4
				c-1.18-1.42-2.61-2.13-4.29-2.13c-0.99,0-1.87,0.22-2.64,0.65c-0.77,0.43-1.37,1.04-1.79,1.83c-0.43,0.79-0.64,1.7-0.64,2.72
				s0.21,1.93,0.64,2.72c0.42,0.79,1.02,1.4,1.79,1.83c0.77,0.43,1.65,0.65,2.64,0.65c1.68,0,3.11-0.71,4.29-2.13l3.28,2.96
				c-0.88,1.11-1.99,1.96-3.33,2.55c-1.33,0.59-2.83,0.88-4.5,0.88C18.96,18.93,17.25,18.53,15.74,17.72z"/>
		</g>
		<g class="st1">
			<path class="st2" d="M42.95,15.03h-7.7l-1.43,3.54h-5.25l8.03-18.2h5.07l8.06,18.2h-5.36L42.95,15.03z M41.44,11.23L39.1,5.41
				l-2.34,5.82H41.44z"/>
		</g>
		<g class="st1">
			<path class="st2" d="M51.19,0.36h5.15v14.12h8.68v4.08H51.19V0.36z"/>
		</g>
		<g class="st1">
			<path class="st2" d="M70.8,17.71c-1.53-0.81-2.74-1.94-3.61-3.38c-0.88-1.44-1.31-3.06-1.31-4.86s0.44-3.42,1.31-4.86
				s2.08-2.57,3.61-3.38S74.07,0,75.99,0s3.65,0.41,5.19,1.22s2.74,1.94,3.61,3.38c0.88,1.44,1.31,3.06,1.31,4.86
				s-0.44,3.42-1.31,4.86c-0.88,1.44-2.08,2.57-3.61,3.38c-1.53,0.82-3.26,1.22-5.19,1.22S72.34,18.52,70.8,17.71z M78.49,14.01
				c0.75-0.43,1.33-1.04,1.77-1.83c0.43-0.79,0.65-1.69,0.65-2.72s-0.22-1.93-0.65-2.72c-0.43-0.79-1.02-1.4-1.77-1.83
				c-0.75-0.43-1.58-0.65-2.5-0.65c-0.92,0-1.75,0.22-2.5,0.65c-0.75,0.43-1.33,1.04-1.77,1.83c-0.43,0.79-0.65,1.7-0.65,2.72
				s0.22,1.93,0.65,2.72c0.43,0.79,1.02,1.4,1.77,1.83c0.75,0.43,1.58,0.65,2.5,0.65C76.91,14.66,77.74,14.45,78.49,14.01z"/>
			<path class="st2" d="M96.76,13.73h-2.81v4.84h-5.15V0.36h8.32c1.65,0,3.08,0.27,4.29,0.82c1.21,0.55,2.15,1.33,2.81,2.34
				s0.99,2.21,0.99,3.58c0,1.32-0.31,2.47-0.92,3.44c-0.62,0.98-1.5,1.75-2.64,2.3l3.93,5.72h-5.51L96.76,13.73z M99.21,5.12
				c-0.54-0.47-1.33-0.7-2.39-0.7h-2.86v5.33h2.86c1.06,0,1.85-0.23,2.39-0.69s0.81-1.11,0.81-1.96S99.75,5.59,99.21,5.12z"/>
			<path class="st2" d="M108.05,0.36h5.15v18.2h-5.15V0.36z"/>
			<path class="st2" d="M131.47,14.59v3.98h-14.61V0.36h14.27v3.98h-9.18v3.07h8.09v3.85h-8.09v3.33H131.47z"/>
			<path class="st2" d="M136.44,18.38c-1.39-0.36-2.51-0.85-3.38-1.46l1.69-3.8c0.81,0.54,1.76,0.97,2.83,1.3s2.13,0.49,3.17,0.49
				c1.98,0,2.96-0.49,2.96-1.48c0-0.52-0.28-0.91-0.85-1.16c-0.56-0.25-1.47-0.52-2.72-0.79c-1.37-0.29-2.51-0.61-3.43-0.95
				c-0.92-0.34-1.71-0.88-2.37-1.62c-0.66-0.74-0.99-1.75-0.99-3.02c0-1.11,0.3-2.11,0.91-3s1.51-1.6,2.72-2.12
				c1.2-0.52,2.68-0.78,4.43-0.78c1.2,0,2.38,0.13,3.54,0.4c1.16,0.27,2.18,0.66,3.07,1.18l-1.59,3.82c-1.73-0.94-3.42-1.4-5.04-1.4
				c-1.02,0-1.77,0.15-2.24,0.45c-0.47,0.3-0.7,0.7-0.7,1.18s0.28,0.85,0.83,1.09c0.55,0.24,1.45,0.49,2.68,0.75
				c1.39,0.29,2.54,0.61,3.45,0.95c0.91,0.34,1.7,0.88,2.37,1.61c0.67,0.74,1,1.74,1,3c0,1.09-0.3,2.08-0.91,2.96
				c-0.61,0.88-1.52,1.59-2.73,2.12c-1.21,0.53-2.69,0.79-4.42,0.79C139.26,18.93,137.83,18.75,136.44,18.38z"/>
		</g>
		<g class="st1">
			<path class="st2" d="M15.74,39.86c-1.52-0.81-2.71-1.93-3.57-3.37c-0.87-1.44-1.3-3.07-1.3-4.89c0-1.82,0.43-3.45,1.3-4.89
				c0.87-1.44,2.06-2.56,3.57-3.37c1.52-0.81,3.23-1.21,5.14-1.21c1.66,0,3.16,0.29,4.5,0.88c1.33,0.59,2.44,1.44,3.33,2.55
				l-3.28,2.96c-1.18-1.42-2.61-2.13-4.29-2.13c-0.99,0-1.87,0.22-2.64,0.65c-0.77,0.43-1.37,1.04-1.79,1.83
				c-0.43,0.79-0.64,1.7-0.64,2.72s0.21,1.93,0.64,2.72c0.42,0.79,1.02,1.4,1.79,1.83c0.77,0.43,1.65,0.65,2.64,0.65
				c1.68,0,3.11-0.71,4.29-2.13l3.28,2.96c-0.88,1.11-1.99,1.96-3.33,2.55c-1.33,0.59-2.83,0.88-4.5,0.88
				C18.96,41.07,17.25,40.66,15.74,39.86z"/>
		</g>
		<g class="st1">
			<path class="st2" d="M34.61,39.85c-1.53-0.81-2.74-1.94-3.61-3.38c-0.88-1.44-1.31-3.06-1.31-4.86s0.44-3.42,1.31-4.86
				s2.08-2.57,3.61-3.38s3.26-1.22,5.19-1.22s3.65,0.41,5.19,1.22s2.74,1.94,3.61,3.38c0.88,1.44,1.31,3.06,1.31,4.86
				s-0.44,3.42-1.31,4.86c-0.88,1.44-2.08,2.57-3.61,3.38c-1.53,0.82-3.26,1.22-5.19,1.22S36.15,40.66,34.61,39.85z M42.3,36.15
				c0.75-0.43,1.33-1.04,1.77-1.83c0.43-0.79,0.65-1.69,0.65-2.72s-0.22-1.93-0.65-2.72c-0.43-0.79-1.02-1.4-1.77-1.83
				c-0.75-0.43-1.58-0.65-2.5-0.65c-0.92,0-1.75,0.22-2.5,0.65c-0.75,0.43-1.33,1.04-1.77,1.83c-0.43,0.79-0.65,1.7-0.65,2.72
				s0.22,1.93,0.65,2.72c0.43,0.79,1.02,1.4,1.77,1.83c0.75,0.43,1.58,0.65,2.5,0.65C40.72,36.8,41.55,36.59,42.3,36.15z"/>
			<path class="st2" d="M54.71,38.86c-1.5-1.47-2.25-3.56-2.25-6.27V22.5h5.15v9.93c0,2.91,1.15,4.37,3.46,4.37
				c2.29,0,3.43-1.46,3.43-4.37V22.5h5.07v10.09c0,2.7-0.75,4.79-2.25,6.27c-1.5,1.47-3.6,2.21-6.31,2.21
				C58.31,41.07,56.21,40.33,54.71,38.86z"/>
			<path class="st2" d="M90.37,22.5v18.2h-4.24l-8.03-9.7v9.7h-5.04V22.5h4.24l8.03,9.7v-9.7H90.37z"/>
			<path class="st2" d="M97.88,26.59h-5.59V22.5h16.3v4.08h-5.56V40.7h-5.15V26.59z"/>
			<path class="st2" d="M125.13,36.73v3.98h-14.61V22.5h14.27v3.98h-9.18v3.07h8.09v3.85h-8.09v3.33H125.13z"/>
			<path class="st2" d="M135.95,35.87h-2.81v4.84h-5.15V22.5h8.32c1.65,0,3.08,0.27,4.29,0.82c1.21,0.55,2.15,1.33,2.81,2.34
				c0.66,1.01,0.99,2.21,0.99,3.58c0,1.32-0.31,2.47-0.92,3.44c-0.62,0.98-1.5,1.75-2.64,2.3l3.93,5.72h-5.51L135.95,35.87z
				 M138.39,27.26c-0.54-0.47-1.33-0.7-2.39-0.7h-2.86v5.33H136c1.06,0,1.85-0.23,2.39-0.69c0.54-0.46,0.81-1.11,0.81-1.96
				S138.93,27.73,138.39,27.26z"/>
		</g>
		<g class="st1">
			<path class="st3" d="M162.79,39.82h-4.14l-0.77,1.9h-2.83l4.33-9.8h2.73l4.34,9.8h-2.88L162.79,39.82z M161.98,37.77l-1.26-3.14
				l-1.26,3.14H161.98z"/>
		</g>
		<g class="st1">
			<path class="st3" d="M174.02,32.36c0.65,0.29,1.16,0.71,1.51,1.26c0.35,0.55,0.53,1.19,0.53,1.92s-0.18,1.38-0.53,1.92
				c-0.36,0.54-0.86,0.96-1.51,1.25s-1.42,0.44-2.31,0.44H170v2.56h-2.77v-9.8h4.48C172.6,31.92,173.37,32.07,174.02,32.36z
				 M172.83,36.6c0.29-0.25,0.43-0.6,0.43-1.06s-0.14-0.81-0.43-1.06c-0.29-0.25-0.72-0.38-1.29-0.38H170v2.87h1.54
				C172.11,36.97,172.54,36.85,172.83,36.6z"/>
		</g>
		<g class="st1">
			<path class="st3" d="M184.21,32.36c0.65,0.29,1.16,0.71,1.51,1.26s0.53,1.19,0.53,1.92s-0.18,1.38-0.53,1.92
				s-0.86,0.96-1.51,1.25s-1.42,0.44-2.31,0.44h-1.71v2.56h-2.77v-9.8h4.48C182.79,31.92,183.56,32.07,184.21,32.36z M183.02,36.6
				c0.29-0.25,0.43-0.6,0.43-1.06s-0.15-0.81-0.43-1.06s-0.72-0.38-1.29-0.38h-1.54v2.87h1.54C182.3,36.97,182.73,36.85,183.02,36.6
				z"/>
		</g>
	</g>
</g>
</svg>
